<svg width="65" height="65" viewBox="0 0 65 65" fill="none" xmlns="http://www.w3.org/2000/svg">
<path d="M55.25 26H58.5V61.75H6.5V26H9.75V19.5C9.75 10.53 17.03 3.25001 26 3.25001C28.3075 3.25001 30.5175 3.73751 32.5 4.61501C34.5478 3.71193 36.7619 3.24698 39 3.25001C47.97 3.25001 55.25 10.53 55.25 19.5V26ZM16.25 19.5V26H22.75V19.5C22.75 15.8275 24.0175 12.48 26.065 9.75002H26C20.6375 9.75002 16.25 14.1375 16.25 19.5ZM48.75 26V19.5C48.75 14.1375 44.3625 9.75002 39 9.75002H38.935C41.0721 12.5524 42.236 15.9758 42.25 19.5V26H48.75ZM32.5 12.285C30.5175 14.0725 29.25 16.64 29.25 19.5V26H35.75V19.5C35.75 16.64 34.4825 14.0725 32.5 12.285Z" fill="white"/>
</svg>
