<svg width="323" height="30" viewBox="0 0 323 30" fill="none" xmlns="http://www.w3.org/2000/svg">
<path d="M322.5 15L297.5 0.566243V29.4338L322.5 15ZM5.03906 17.5C6.41977 17.5 7.53906 16.3807 7.53906 15C7.53906 13.6193 6.41977 12.5 5.03906 12.5V17.5ZM15.1172 12.5C13.7365 12.5 12.6172 13.6193 12.6172 15C12.6172 16.3807 13.7365 17.5 15.1172 17.5V12.5ZM25.1953 17.5C26.576 17.5 27.6953 16.3807 27.6953 15C27.6953 13.6193 26.576 12.5 25.1953 12.5V17.5ZM35.2734 12.5C33.8927 12.5 32.7734 13.6193 32.7734 15C32.7734 16.3807 33.8927 17.5 35.2734 17.5V12.5ZM45.3516 17.5C46.7323 17.5 47.8516 16.3807 47.8516 15C47.8516 13.6193 46.7323 12.5 45.3516 12.5V17.5ZM55.4297 12.5C54.049 12.5 52.9297 13.6193 52.9297 15C52.9297 16.3807 54.049 17.5 55.4297 17.5V12.5ZM65.5078 17.5C66.8885 17.5 68.0078 16.3807 68.0078 15C68.0078 13.6193 66.8885 12.5 65.5078 12.5V17.5ZM75.5859 12.5C74.2052 12.5 73.0859 13.6193 73.0859 15C73.0859 16.3807 74.2052 17.5 75.5859 17.5V12.5ZM85.6641 17.5C87.0448 17.5 88.1641 16.3807 88.1641 15C88.1641 13.6193 87.0448 12.5 85.6641 12.5V17.5ZM95.7422 12.5C94.3615 12.5 93.2422 13.6193 93.2422 15C93.2422 16.3807 94.3615 17.5 95.7422 17.5V12.5ZM105.82 17.5C107.201 17.5 108.32 16.3807 108.32 15C108.32 13.6193 107.201 12.5 105.82 12.5V17.5ZM115.898 12.5C114.518 12.5 113.398 13.6193 113.398 15C113.398 16.3807 114.518 17.5 115.898 17.5V12.5ZM125.977 17.5C127.357 17.5 128.477 16.3807 128.477 15C128.477 13.6193 127.357 12.5 125.977 12.5V17.5ZM136.055 12.5C134.674 12.5 133.555 13.6193 133.555 15C133.555 16.3807 134.674 17.5 136.055 17.5V12.5ZM146.133 17.5C147.514 17.5 148.633 16.3807 148.633 15C148.633 13.6193 147.514 12.5 146.133 12.5V17.5ZM156.211 12.5C154.83 12.5 153.711 13.6193 153.711 15C153.711 16.3807 154.83 17.5 156.211 17.5V12.5ZM166.289 17.5C167.67 17.5 168.789 16.3807 168.789 15C168.789 13.6193 167.67 12.5 166.289 12.5V17.5ZM176.367 12.5C174.986 12.5 173.867 13.6193 173.867 15C173.867 16.3807 174.986 17.5 176.367 17.5V12.5ZM186.445 17.5C187.826 17.5 188.945 16.3807 188.945 15C188.945 13.6193 187.826 12.5 186.445 12.5V17.5ZM196.523 12.5C195.143 12.5 194.023 13.6193 194.023 15C194.023 16.3807 195.143 17.5 196.523 17.5V12.5ZM206.602 17.5C207.982 17.5 209.102 16.3807 209.102 15C209.102 13.6193 207.982 12.5 206.602 12.5V17.5ZM216.68 12.5C215.299 12.5 214.18 13.6193 214.18 15C214.18 16.3807 215.299 17.5 216.68 17.5V12.5ZM226.758 17.5C228.139 17.5 229.258 16.3807 229.258 15C229.258 13.6193 228.139 12.5 226.758 12.5V17.5ZM236.836 12.5C235.455 12.5 234.336 13.6193 234.336 15C234.336 16.3807 235.455 17.5 236.836 17.5V12.5ZM246.914 17.5C248.295 17.5 249.414 16.3807 249.414 15C249.414 13.6193 248.295 12.5 246.914 12.5V17.5ZM256.992 12.5C255.611 12.5 254.492 13.6193 254.492 15C254.492 16.3807 255.611 17.5 256.992 17.5V12.5ZM267.07 17.5C268.451 17.5 269.57 16.3807 269.57 15C269.57 13.6193 268.451 12.5 267.07 12.5V17.5ZM277.148 12.5C275.768 12.5 274.648 13.6193 274.648 15C274.648 16.3807 275.768 17.5 277.148 17.5V12.5ZM287.227 17.5C288.607 17.5 289.727 16.3807 289.727 15C289.727 13.6193 288.607 12.5 287.227 12.5V17.5ZM297.305 12.5C295.924 12.5 294.805 13.6193 294.805 15C294.805 16.3807 295.924 17.5 297.305 17.5V12.5ZM307.383 17.5C308.764 17.5 309.883 16.3807 309.883 15C309.883 13.6193 308.764 12.5 307.383 12.5V17.5ZM317.461 12.5C316.08 12.5 314.961 13.6193 314.961 15C314.961 16.3807 316.08 17.5 317.461 17.5V12.5ZM0 17.5H5.03906V12.5H0V17.5ZM15.1172 17.5H25.1953V12.5H15.1172V17.5ZM35.2734 17.5H45.3516V12.5H35.2734V17.5ZM55.4297 17.5H65.5078V12.5H55.4297V17.5ZM75.5859 17.5H85.6641V12.5H75.5859V17.5ZM95.7422 17.5H105.82V12.5H95.7422V17.5ZM115.898 17.5H125.977V12.5H115.898V17.5ZM136.055 17.5H146.133V12.5H136.055V17.5ZM156.211 17.5H166.289V12.5H156.211V17.5ZM176.367 17.5H186.445V12.5H176.367V17.5ZM196.523 17.5H206.602V12.5H196.523V17.5ZM216.68 17.5H226.758V12.5H216.68V17.5ZM236.836 17.5H246.914V12.5H236.836V17.5ZM256.992 17.5H267.07V12.5H256.992V17.5ZM277.148 17.5H287.227V12.5H277.148V17.5ZM297.305 17.5H307.383V12.5H297.305V17.5Z" fill="#F0F5F9"/>
</svg>
