<svg width="90" height="90" viewBox="0 0 90 90" fill="none" xmlns="http://www.w3.org/2000/svg">
<circle cx="45" cy="45" r="44" fill="#FFBF00" stroke="#202020" stroke-width="2"/>
<path d="M45 27.5615C45 26.4044 44.7721 25.2586 44.3293 24.1896C43.8865 23.1205 43.2375 22.1492 42.4193 21.331C41.6011 20.5128 40.6297 19.8638 39.5607 19.421C38.4917 18.9782 37.3459 18.7502 36.1888 18.7502H27.5613C26.3947 18.7352 25.2368 18.952 24.1547 19.3881C23.0726 19.8241 22.0879 20.4707 21.2576 21.2903C20.4274 22.1099 19.7682 23.0863 19.3183 24.1627C18.8683 25.2391 18.6367 26.3941 18.6367 27.5608C18.6367 28.7274 18.8683 29.8824 19.3183 30.9588C19.7682 32.0352 20.4274 33.0116 21.2576 33.8312C22.0879 34.6508 23.0726 35.2974 24.1547 35.7335C25.2368 36.1695 26.3947 36.3863 27.5613 36.3713H29.25V40.6252C29.25 40.6252 45 38.499 45 27.5615ZM36.9792 50.8336C36.9792 54.0565 34.3688 56.6669 31.1458 56.6669C27.9229 56.6669 25.3125 54.0565 25.3125 50.8336C25.3125 47.6107 27.9229 45.0002 31.1458 45.0002C34.3688 45.0002 36.9792 47.6107 36.9792 50.8336ZM31.1458 59.5836C27.0086 59.5836 18.75 61.669 18.75 65.8063V71.2502H43.5417V65.8063C43.5417 61.6675 35.2831 59.5836 31.1458 59.5836ZM58.8542 56.6669C62.0771 56.6669 64.6875 54.0565 64.6875 50.8336C64.6875 47.6107 62.0771 45.0002 58.8542 45.0002C55.6313 45.0002 53.0208 47.6107 53.0208 50.8336C53.0208 54.0565 55.6313 56.6669 58.8542 56.6669ZM58.8542 59.5836C54.7169 59.5836 46.4583 61.669 46.4583 65.8063V71.2502H71.25V65.8063C71.25 61.6675 62.9915 59.5836 58.8542 59.5836ZM56.7279 20.2086C54.391 20.2086 52.1499 21.1369 50.4974 22.7893C48.845 24.4418 47.9167 26.6829 47.9167 29.0198C47.9167 39.9573 61.9167 42.0836 61.9167 42.0836V37.8296H62.4388C63.6053 37.8446 64.7632 37.6278 65.8453 37.1918C66.9274 36.7557 67.9122 36.1092 68.7424 35.2895C69.5726 34.4699 70.2318 33.4936 70.6818 32.4172C71.1317 31.3408 71.3634 30.1857 71.3634 29.0191C71.3634 27.8524 71.1317 26.6974 70.6818 25.621C70.2318 24.5446 69.5726 23.5683 68.7424 22.7487C67.9122 21.929 66.9274 21.2824 65.8453 20.8464C64.7632 20.4104 63.6053 20.1936 62.4388 20.2086H56.7279V20.2086Z" fill="white"/>
</svg>
