<svg viewBox="190.39999999999998 421.98749999999995 707.2 585.3375000000002" fill="none" xmlns="http://www.w3.org/2000/svg" xmlns:xlink="http://www.w3.org/1999/xlink" overflow="visible" width="707.2px" height="585.3375000000002px"><g id="Master/Stickers/Hologram"><g id="Group 51"><path id="Fill 1" fill-rule="evenodd" clip-rule="evenodd" d="M543.713 813.225L202.719 749.354C325.154 934.396 543.713 998.768 543.713 998.768C543.713 998.768 762.273 934.396 884.707 749.354L543.713 813.225Z" fill="#a17503"/><path id="Fill 3" fill-rule="evenodd" clip-rule="evenodd" d="M849.753 709.473H543.713H237.674L202.719 749.354C250.18 783.69 378.924 813.225 543.713 813.225C708.503 813.225 837.247 783.69 884.707 749.354L849.753 709.473Z" fill="#ffbf00"/><path id="Fill 5" fill-rule="evenodd" clip-rule="evenodd" d="M851.942 712.979C851.942 733.401 713.943 756.084 543.714 756.084C373.483 756.084 235.485 733.401 235.485 712.979C235.485 692.558 373.483 669.875 543.714 669.875C713.943 669.875 851.942 692.558 851.942 712.979" fill="#755303"/><path id="Fill 10" fill-rule="evenodd" clip-rule="evenodd" d="M240.955 720.167C268.086 738.377 393.308 756.085 543.714 756.085C694.119 756.085 819.341 738.377 846.472 720.167C819.341 701.957 694.119 684.249 543.714 684.249C393.308 684.249 268.086 701.957 240.955 720.167" fill="#4c3300"/><path id="Fill 12" fill-rule="evenodd" clip-rule="evenodd" d="M434.225 953.412C433.703 953.412 433.185 953.175 432.847 952.724C386.157 890.358 373.023 803.001 372.896 802.125C372.844 801.771 372.905 801.411 373.067 801.093L399.412 749.757C399.847 748.911 400.885 748.58 401.727 749.012C402.573 749.446 402.906 750.482 402.473 751.327L376.382 802.167C377.555 809.594 391.348 891.555 435.601 950.661C436.17 951.422 436.016 952.499 435.255 953.069C434.945 953.3 434.583 953.412 434.225 953.412" fill="#755303"/><path id="Fill 14" fill-rule="evenodd" clip-rule="evenodd" d="M652.985 953.412C652.627 953.412 652.265 953.3 651.955 953.069C651.195 952.499 651.04 951.422 651.609 950.661C695.862 891.555 709.655 809.594 710.828 802.167L684.738 751.327C684.304 750.482 684.638 749.446 685.483 749.012C686.327 748.58 687.364 748.911 687.798 749.757L714.143 801.093C714.306 801.411 714.366 801.771 714.315 802.125C714.187 803.001 701.054 890.358 654.363 952.724C654.025 953.175 653.507 953.412 652.985 953.412" fill="#755303"/><path id="Fill 16" fill-rule="evenodd" clip-rule="evenodd" d="M483.594 813.41C483.465 813.41 483.333 813.395 483.202 813.365C482.278 813.149 481.701 812.224 481.918 811.3L495.05 755.008C495.266 754.085 496.191 753.509 497.115 753.723C498.04 753.94 498.616 754.865 498.4 755.79L485.268 812.081C485.082 812.875 484.375 813.41 483.594 813.41" fill="#755303"/><path id="Fill 18" fill-rule="evenodd" clip-rule="evenodd" d="M607.954 813.41C607.173 813.41 606.466 812.875 606.28 812.081L593.148 755.79C592.932 754.865 593.508 753.94 594.433 753.723C595.36 753.509 596.281 754.085 596.498 755.008L609.63 811.3C609.847 812.224 609.27 813.149 608.346 813.365C608.215 813.395 608.083 813.41 607.954 813.41" fill="#755303"/><path id="Fill 20" fill-rule="evenodd" clip-rule="evenodd" d="M655.189 609.568H432.24C425.163 609.568 419.426 603.832 419.426 596.755V435.812C419.426 428.736 425.163 423 432.24 423H655.189C662.265 423 668.002 428.736 668.002 435.812V596.755C668.002 603.832 662.265 609.568 655.189 609.568" fill="#cf9902"/><g id="Group 26"><path id="Fill 22" fill-rule="evenodd" clip-rule="evenodd" d="M387.148 527.264H326.281C322.431 527.264 319.31 524.143 319.31 520.293V478.087C319.31 474.237 322.431 471.116 326.281 471.116H387.148C390.999 471.116 394.12 474.237 394.12 478.087V520.293C394.12 524.143 390.999 527.264 387.148 527.264" fill="#cf9902"/><path id="Fill 24" fill-rule="evenodd" clip-rule="evenodd" d="M761.146 527.264H700.279C696.429 527.264 693.308 524.143 693.308 520.293V478.087C693.308 474.237 696.429 471.116 700.279 471.116H761.146C764.997 471.116 768.118 474.237 768.118 478.087V520.293C768.118 524.143 764.997 527.264 761.146 527.264" fill="#cf9902"/></g><path id="Fill 27" fill-rule="evenodd" clip-rule="evenodd" d="M743.246 585.551H699.315C695.998 585.551 693.309 582.862 693.309 579.544V549.569C693.309 546.251 695.998 543.562 699.315 543.562H743.246C746.563 543.562 749.253 546.251 749.253 549.569V579.544C749.253 582.862 746.563 585.551 743.246 585.551" fill="#cf9902"/><path id="Fill 29" fill-rule="evenodd" clip-rule="evenodd" d="M388.113 585.551H344.181C340.864 585.551 338.175 582.862 338.175 579.544V549.569C338.175 546.251 340.864 543.562 344.181 543.562H388.113C391.43 543.562 394.12 546.251 394.12 549.569V579.544C394.12 582.862 391.43 585.551 388.113 585.551" fill="#cf9902"/><path id="Fill 31" fill-rule="evenodd" clip-rule="evenodd" d="M430.82 609.254L453.01 631.683L543.714 723.357L656.607 609.254H430.82Z" fill="#cf9902"/><path id="Fill 33" fill-rule="evenodd" clip-rule="evenodd" d="M543.713 814.945C368.759 814.945 245.88 782.702 201.712 750.747C200.942 750.19 200.77 749.115 201.327 748.346C201.883 747.578 202.959 747.406 203.728 747.961C247.447 779.591 369.529 811.506 543.713 811.506C717.897 811.506 839.979 779.591 883.699 747.961C884.467 747.402 885.543 747.575 886.1 748.346C886.657 749.115 886.484 750.19 885.715 750.747C841.546 782.702 718.667 814.945 543.713 814.945" fill="#755303"/><path id="Fill 35" fill-rule="evenodd" clip-rule="evenodd" d="M460.336 449.551H438.796C437.53 449.551 436.503 448.524 436.503 447.258C436.503 445.991 437.53 444.965 438.796 444.965H460.336C461.602 444.965 462.629 445.991 462.629 447.258C462.629 448.524 461.602 449.551 460.336 449.551" fill="#ffbf00"/><path id="Fill 37" fill-rule="evenodd" clip-rule="evenodd" d="M504.27 564.819H438.796C437.531 564.819 436.503 563.793 436.503 562.526C436.503 561.259 437.531 560.233 438.796 560.233H504.27C505.537 560.233 506.563 561.259 506.563 562.526C506.563 563.793 505.537 564.819 504.27 564.819" fill="#ffbf00"/><path id="Fill 39" fill-rule="evenodd" clip-rule="evenodd" d="M531.559 564.819H513.393C512.126 564.819 511.1 563.793 511.1 562.526C511.1 561.259 512.126 560.233 513.393 560.233H531.559C532.826 560.233 533.852 561.259 533.852 562.526C533.852 563.793 532.826 564.819 531.559 564.819" fill="#ffbf00"/><path id="Fill 41" fill-rule="evenodd" clip-rule="evenodd" d="M456.962 576.35H438.796C437.53 576.35 436.503 575.323 436.503 574.057C436.503 572.79 437.53 571.764 438.796 571.764H456.962C458.229 571.764 459.255 572.79 459.255 574.057C459.255 575.323 458.229 576.35 456.962 576.35" fill="#ffbf00"/><path id="Fill 43" fill-rule="evenodd" clip-rule="evenodd" d="M517.207 576.35H466.947C465.681 576.35 464.654 575.323 464.654 574.057C464.654 572.79 465.681 571.764 466.947 571.764H517.207C518.474 571.764 519.5 572.79 519.5 574.057C519.5 575.323 518.474 576.35 517.207 576.35" fill="#ffbf00"/><path id="Fill 45" fill-rule="evenodd" clip-rule="evenodd" d="M452.553 461.481H438.796C437.531 461.481 436.503 460.454 436.503 459.188C436.503 457.921 437.531 456.894 438.796 456.894H452.553C453.82 456.894 454.846 457.921 454.846 459.188C454.846 460.454 453.82 461.481 452.553 461.481" fill="#ffbf00"/><path id="Fill 47" fill-rule="evenodd" clip-rule="evenodd" d="M531.559 461.481H463.507C462.241 461.481 461.214 460.454 461.214 459.188C461.214 457.921 462.241 456.894 463.507 456.894H531.559C532.826 456.894 533.852 457.921 533.852 459.188C533.852 460.454 532.826 461.481 531.559 461.481" fill="#ffbf00"/><path id="Fill 49" fill-rule="evenodd" clip-rule="evenodd" d="M648.631 533.214C639.634 533.214 635.519 523.771 631.539 514.639C627.992 506.504 624.644 498.818 618.65 498.818C612.657 498.818 609.308 506.503 605.763 514.639C601.782 523.771 597.667 533.214 588.67 533.214C579.674 533.214 575.559 523.771 571.58 514.639C568.034 506.504 564.685 498.818 558.693 498.818C552.701 498.818 549.353 506.504 545.808 514.639C541.829 523.771 537.714 533.214 528.718 533.214C519.723 533.214 515.609 523.771 511.629 514.64C508.083 506.504 504.735 498.818 498.742 498.818C492.751 498.818 489.402 506.504 485.857 514.639C481.879 523.771 477.764 533.214 468.768 533.214C459.773 533.214 455.659 523.771 451.681 514.639C448.135 506.504 444.787 498.818 438.796 498.818C437.53 498.818 436.503 497.792 436.503 496.526C436.503 495.259 437.53 494.233 438.796 494.233C447.791 494.233 451.906 503.676 455.885 512.807C459.429 520.943 462.777 528.627 468.768 528.627C474.759 528.627 478.108 520.943 481.652 512.807C485.632 503.676 489.746 494.233 498.742 494.233C507.738 494.233 511.854 503.676 515.833 512.807C519.378 520.943 522.727 528.627 528.718 528.627C534.709 528.627 538.058 520.943 541.604 512.807C545.582 503.676 549.696 494.233 558.693 494.233C567.689 494.233 571.804 503.676 575.782 512.807C579.328 520.943 582.678 528.627 588.67 528.627C594.663 528.627 598.013 520.943 601.559 512.806C605.538 503.674 609.653 494.233 618.65 494.233C627.648 494.233 631.763 503.676 635.742 512.807C639.289 520.943 642.638 528.627 648.631 528.627C649.898 528.627 650.924 529.654 650.924 530.921C650.924 532.187 649.898 533.214 648.631 533.214" fill="#ffbf00"/></g></g></svg>