<svg viewBox="0.0849999999999973 46.35632183908046 169.83000000000007 57.41379310344828" fill="none" xmlns="http://www.w3.org/2000/svg" xmlns:xlink="http://www.w3.org/1999/xlink" overflow="visible" width="157.25000000000006px" height="53.160919540229884px"><rect id="Blush Background Color" fill="#F0F5F9" x="0.0849999999999973" y="46.35632183908046" width="169.83000000000007" height="57.41379310344828"/><g id="Master/Stickers/Email"><g id="Sticker"><path id="Fill 1" fill-rule="evenodd" clip-rule="evenodd" d="M83.868 96.3137H31.592C30.576 96.3137 29.752 95.5227 29.752 94.5467C29.752 93.5707 30.576 92.7797 31.592 92.7797H83.868C84.885 92.7797 85.709 93.5707 85.709 94.5467C85.709 95.5227 84.885 96.3137 83.868 96.3137" fill="#eaaf00"/><path id="Fill 3" fill-rule="evenodd" clip-rule="evenodd" d="M83.209 69.9914H46.339C45.322 69.9914 44.498 69.2004 44.498 68.2244C44.498 67.2484 45.322 66.4574 46.339 66.4574H83.209C84.226 66.4574 85.05 67.2484 85.05 68.2244C85.05 69.2004 84.226 69.9914 83.209 69.9914" fill="#eaaf00"/><path id="Fill 5" fill-rule="evenodd" clip-rule="evenodd" d="M83.2087 84.1017H69.5607C68.5437 84.1017 67.7197 83.3107 67.7197 82.3347C67.7197 81.3587 68.5437 80.5677 69.5607 80.5677H83.2087C84.2257 80.5677 85.0497 81.3587 85.0497 82.3347C85.0497 83.3107 84.2257 84.1017 83.2087 84.1017" fill="#eaaf00"/><g id="Group 9"><mask id="mask0acf49cc2-d758-406a-9eac-8a6de6288feb" style="mask-type:alpha" maskUnits="userSpaceOnUse" x="7" y="80" width="57" height="5" fill="#F0F5F9"><path id="Clip 8" fill-rule="evenodd" clip-rule="evenodd" d="M7 80.5677H63.7738V84.1017H7V80.5677Z" fill="#F0F5F9"/></mask><g mask="url(#mask0acf49cc2-d758-406a-9eac-8a6de6288feb)"><path id="Fill 7" fill-rule="evenodd" clip-rule="evenodd" d="M61.934 84.1017H8.841C7.824 84.1017 7 83.3107 7 82.3347C7 81.3587 7.824 80.5677 8.841 80.5677H61.934C62.951 80.5677 63.774 81.3587 63.774 82.3347C63.774 83.3107 62.951 84.1017 61.934 84.1017" fill="#eaaf00"/></g></g><path id="Fill 10" fill-rule="evenodd" clip-rule="evenodd" d="M83.2083 57.361H22.4923C21.4763 57.361 20.6523 56.57 20.6523 55.594C20.6523 54.618 21.4763 53.827 22.4923 53.827H83.2083C84.2253 53.827 85.0493 54.618 85.0493 55.594C85.0493 56.57 84.2253 57.361 83.2083 57.361" fill="#eaaf00"/><path id="Fill 12" fill-rule="evenodd" clip-rule="evenodd" d="M159.57 91.4528C159.57 94.8468 156.746 97.6068 153.273 97.6068H91.5733C88.1023 97.6068 85.2783 94.8468 85.2783 91.4528V58.1558C85.2783 54.7618 88.1023 52.0018 91.5733 52.0018H153.273C156.746 52.0018 159.57 54.7618 159.57 58.1558V91.4528Z" fill="#ffd455"/><g id="Group 16"><mask id="mask1acf49cc2-d758-406a-9eac-8a6de6288feb" style="mask-type:alpha" maskUnits="userSpaceOnUse" x="82" y="48" width="81" height="53" fill="#F0F5F9"><path id="Clip 15" fill-rule="evenodd" clip-rule="evenodd" d="M82.1514 48.9998H162.697V100.609H82.1514V48.9998Z" fill="#F0F5F9"/></mask><g mask="url(#mask1acf49cc2-d758-406a-9eac-8a6de6288feb)"><path id="Fill 14" fill-rule="evenodd" clip-rule="evenodd" d="M159.57 91.4528C159.57 94.8468 156.746 97.6068 153.273 97.6068H91.5734C88.1024 97.6068 85.2784 94.8468 85.2784 91.4528V58.1558C85.2784 54.7618 88.1024 52.0018 91.5734 52.0018H153.273C156.746 52.0018 159.57 54.7618 159.57 58.1558V91.4528ZM153.273 48.9998H91.5734C86.3784 48.9998 82.1514 53.1068 82.1514 58.1558V91.4528C82.1514 96.5008 86.3784 100.609 91.5734 100.609H153.273C158.47 100.609 162.697 96.5008 162.697 91.4528V58.1558C162.697 53.1068 158.47 48.9998 153.273 48.9998V48.9998Z" fill="#eaaf00"/></g></g><path id="Fill 17" fill-rule="evenodd" clip-rule="evenodd" d="M152.548 59.8571C152.02 59.2011 151.04 59.0781 150.355 59.5841L122.42 80.2261L94.2924 59.5811C93.6064 59.0781 92.6264 59.2041 92.1004 59.8611C91.5764 60.5201 91.7074 61.4621 92.3934 61.9651L111.09 75.6891L92.3894 89.4971C91.7054 90.0021 91.5774 90.9441 92.1034 91.6021C92.4104 91.9851 92.8744 92.1871 93.3444 92.1871C93.6764 92.1871 94.0114 92.0861 94.2964 91.8761L113.662 77.5771L121.474 83.3101C121.754 83.5161 122.089 83.6181 122.423 83.6181C122.76 83.6181 123.096 83.5141 123.377 83.3071L131.127 77.5811L150.352 91.8731C150.636 92.0851 150.973 92.1871 151.308 92.1871C151.774 92.1871 152.237 91.9871 152.544 91.6051C153.073 90.9501 152.948 90.0081 152.265 89.5001L133.687 75.6891L152.263 61.9621C152.946 61.4571 153.074 60.5151 152.548 59.8571" fill="#eaaf00"/><path id="Fill 19" fill-rule="evenodd" clip-rule="evenodd" d="M122.366 57.361L124.698 61.535L128.914 63.792L124.741 66.125L122.486 70.34L120.152 66.167L115.934 63.91L120.107 61.577L122.366 57.361Z" fill="#bf8f00"/></g></g></svg>