<svg width="90" height="90" viewBox="0 0 90 90" fill="none" xmlns="http://www.w3.org/2000/svg">
<circle cx="45" cy="45" r="44" fill="#FFBF00" stroke="#202020" stroke-width="2"/>
<path d="M68.25 38H71.5V73.75H19.5V38H22.75V31.5C22.75 22.53 30.03 15.25 39 15.25C41.3075 15.25 43.5175 15.7375 45.5 16.615C47.5478 15.7119 49.7619 15.247 52 15.25C60.97 15.25 68.25 22.53 68.25 31.5V38ZM29.25 31.5V38H35.75V31.5C35.75 27.8275 37.0175 24.48 39.065 21.75H39C33.6375 21.75 29.25 26.1375 29.25 31.5ZM61.75 38V31.5C61.75 26.1375 57.3625 21.75 52 21.75H51.935C54.0721 24.5524 55.236 27.9758 55.25 31.5V38H61.75ZM45.5 24.285C43.5175 26.0725 42.25 28.64 42.25 31.5V38H48.75V31.5C48.75 28.64 47.4825 26.0725 45.5 24.285V24.285Z" fill="white"/>
</svg>
