<svg width="90" height="90" viewBox="0 0 90 90" fill="none" xmlns="http://www.w3.org/2000/svg">
<circle cx="45" cy="45" r="44" fill="#FFBF00" stroke="#202020" stroke-width="2"/>
<path fill-rule="evenodd" clip-rule="evenodd" d="M31.25 45H24.635C23.993 46.1121 23.0019 46.9812 21.8155 47.4726C20.6292 47.964 19.3138 48.0503 18.0734 47.7179C16.8331 47.3855 15.737 46.6532 14.9553 45.6344C14.1736 44.6157 13.7499 43.3675 13.7499 42.0833C13.7499 40.7992 14.1736 39.551 14.9553 38.5322C15.737 37.5135 16.8331 36.7811 18.0734 36.4488C19.3138 36.1164 20.6292 36.2026 21.8155 36.694C23.0019 37.1854 23.993 38.0546 24.635 39.1667H31.25V24.5833C31.25 23.0362 31.8646 21.5525 32.9586 20.4585C34.0525 19.3646 35.5363 18.75 37.0834 18.75H60.4167C61.9638 18.75 63.4475 19.3646 64.5415 20.4585C65.6354 21.5525 66.25 23.0362 66.25 24.5833V65.4167C66.25 66.9638 65.6354 68.4475 64.5415 69.5415C63.4475 70.6354 61.9638 71.25 60.4167 71.25H37.0834C35.5363 71.25 34.0525 70.6354 32.9586 69.5415C31.8646 68.4475 31.25 66.9638 31.25 65.4167V45ZM37.0834 45V65.4167H60.4167V24.5833H37.0834V39.1667H43.6984C44.3404 38.0546 45.3315 37.1854 46.5179 36.694C47.7042 36.2026 49.0196 36.1164 50.2599 36.4488C51.5003 36.7811 52.5963 37.5135 53.3781 38.5322C54.1598 39.551 54.5835 40.7992 54.5835 42.0833C54.5835 43.3675 54.1598 44.6157 53.3781 45.6344C52.5963 46.6532 51.5003 47.3855 50.2599 47.7179C49.0196 48.0503 47.7042 47.964 46.5179 47.4726C45.3315 46.9812 44.3404 46.1121 43.6984 45H37.0834Z" fill="white"/>
</svg>
